<?xml version="1.0" encoding="iso-8859-1"?>
<!-- Generator: Adobe Illustrator 19.0.0, SVG Export Plug-In . SVG Version: 6.00 Build 0)  -->
<svg version="1.1" id="Layer_1" xmlns="http://www.w3.org/2000/svg" xmlns:xlink="http://www.w3.org/1999/xlink" x="0px" y="0px"
	 viewBox="0 0 512 512" style="enable-background:new 0 0 512 512;" xml:space="preserve">
<g>
	<g>
		<path d="M315.535,54.772v35.721c29.545,0,53.581,24.037,53.581,53.581h35.721C404.837,94.833,364.776,54.772,315.535,54.772z"/>
	</g>
</g>
<g>
	<g>
		<path d="M35.721,346.493H0c0,49.241,40.061,89.302,89.302,89.302v-35.721C59.758,400.074,35.721,376.038,35.721,346.493z"/>
	</g>
</g>
<g>
	<g>
		<path d="M443.368,278.626c-3.156-65.538-57.468-117.881-123.775-117.881c-11.697,0-23.045,1.669-33.825,4.75V123.04
			c0-23.646-14.756-45.101-41.549-60.411c-23.645-13.512-54.699-20.954-87.442-20.954c-32.743,0-63.798,7.442-87.444,20.953
			c-26.793,15.31-41.549,36.765-41.549,60.411v158.759c0,23.646,14.756,45.101,41.549,60.411
			c11.79,6.737,25.425,11.963,40.19,15.512c-0.161,2.36-0.269,4.733-0.269,7.131c0,58.157,47.315,105.473,105.473,105.473h199.143
			c54.109,0,98.131-44.022,98.131-98.133C512,329.132,483.414,291.347,443.368,278.626z M87.054,93.642
			c18.069-10.326,43.481-16.247,69.721-16.247c26.239,0,51.651,5.921,69.72,16.247c14.967,8.552,23.551,19.267,23.551,29.396
			c0,10.129-8.584,20.844-23.55,29.396c-18.07,10.325-43.482,16.247-69.721,16.247c-26.239,0-51.652-5.921-69.721-16.247
			c-14.967-8.553-23.551-19.267-23.551-29.396S72.087,102.194,87.054,93.642z M63.503,179.891c1.877,1.218,3.814,2.408,5.828,3.559
			c23.646,13.512,54.701,20.953,87.444,20.953c32.743,0,63.798-7.442,87.443-20.953c2.013-1.151,3.951-2.341,5.828-3.559v2.359
			c-21.029,14.329-37.5,34.955-46.572,59.224c-14.176,4.267-30.276,6.588-46.699,6.588c-26.239,0-51.652-5.921-69.721-16.247
			c-14.967-8.553-23.551-19.268-23.551-29.397V179.891z M117.995,322.978c-11.555-2.765-22.124-6.744-30.939-11.782
			c-14.968-8.553-23.552-19.268-23.552-29.397v-22.527c1.877,1.218,3.814,2.408,5.828,3.559
			c21.458,12.261,49.019,19.501,78.401,20.741C134.961,294.13,124.701,307.622,117.995,322.978z M413.869,434.605H214.726
			c-38.462,0-69.752-31.29-69.752-69.752c0-38.054,30.957-69.339,69.009-69.74l16.494-0.174l1.137-16.455
			c3.176-45.991,41.821-82.018,87.981-82.018c48.634,0,88.2,39.566,88.2,88.2c0,2.239-0.086,4.509-0.255,6.748l-1.253,16.628
			l16.503,2.39c30.494,4.415,53.49,30.969,53.49,61.765C476.279,406.608,448.281,434.605,413.869,434.605z"/>
	</g>
</g>
<g>
</g>
<g>
</g>
<g>
</g>
<g>
</g>
<g>
</g>
<g>
</g>
<g>
</g>
<g>
</g>
<g>
</g>
<g>
</g>
<g>
</g>
<g>
</g>
<g>
</g>
<g>
</g>
<g>
</g>
</svg>
